<mxfile host="app.diagrams.net" agent="Mozilla/5.0 (Windows NT 10.0; Win64; x64) AppleWebKit/537.36 (KHTML, like Gecko) Chrome/133.0.0.0 Safari/537.36" version="26.0.16">
  <diagram id="prtHgNgQTEPvFCAcTncT" name="Page-1">
    <mxGraphModel dx="1373" dy="731" grid="1" gridSize="10" guides="1" tooltips="1" connect="1" arrows="1" fold="1" page="1" pageScale="1" pageWidth="827" pageHeight="1169" math="0" shadow="0">
      <root>
        <mxCell id="0" />
        <mxCell id="1" parent="0" />
        <mxCell id="ZnAn2GDKwHJX_mXja53h-13" style="edgeStyle=orthogonalEdgeStyle;rounded=0;orthogonalLoop=1;jettySize=auto;html=1;exitX=0.5;exitY=1;exitDx=0;exitDy=0;entryX=0.5;entryY=0;entryDx=0;entryDy=0;" parent="1" source="ZnAn2GDKwHJX_mXja53h-1" target="ZnAn2GDKwHJX_mXja53h-6" edge="1">
          <mxGeometry relative="1" as="geometry" />
        </mxCell>
        <mxCell id="ZnAn2GDKwHJX_mXja53h-1" value="" style="ellipse;whiteSpace=wrap;html=1;aspect=fixed;" parent="1" vertex="1">
          <mxGeometry x="430" y="20" width="10" height="10" as="geometry" />
        </mxCell>
        <mxCell id="ZnAn2GDKwHJX_mXja53h-37" style="edgeStyle=orthogonalEdgeStyle;rounded=0;orthogonalLoop=1;jettySize=auto;html=1;entryX=0;entryY=0.5;entryDx=0;entryDy=0;" parent="1" source="ZnAn2GDKwHJX_mXja53h-3" target="ZnAn2GDKwHJX_mXja53h-15" edge="1">
          <mxGeometry relative="1" as="geometry">
            <Array as="points">
              <mxPoint x="120" y="685" />
            </Array>
          </mxGeometry>
        </mxCell>
        <mxCell id="ZnAn2GDKwHJX_mXja53h-3" value="&lt;span style=&quot;font-family: Arial; text-align: start; text-wrap-mode: nowrap;&quot;&gt;&lt;font style=&quot;font-size: 14px;&quot;&gt;Authentifier utilisateur&lt;/font&gt;&lt;/span&gt;" style="rounded=1;whiteSpace=wrap;html=1;" parent="1" vertex="1">
          <mxGeometry x="40" y="159.54" width="174" height="79.09" as="geometry" />
        </mxCell>
        <mxCell id="ZnAn2GDKwHJX_mXja53h-21" style="edgeStyle=orthogonalEdgeStyle;rounded=0;orthogonalLoop=1;jettySize=auto;html=1;entryX=0.5;entryY=0;entryDx=0;entryDy=0;" parent="1" source="ZnAn2GDKwHJX_mXja53h-4" target="ZnAn2GDKwHJX_mXja53h-14" edge="1">
          <mxGeometry relative="1" as="geometry" />
        </mxCell>
        <mxCell id="ZnAn2GDKwHJX_mXja53h-4" value="&lt;div style=&quot;background-color: rgb(255, 255, 254); line-height: 19px;&quot;&gt;&lt;font face=&quot;Consolas, Courier New, monospace&quot;&gt;&lt;span style=&quot;font-size: 14px; white-space: pre;&quot;&gt;CrÃ©e Compte&lt;/span&gt;&lt;/font&gt;&lt;/div&gt;" style="rounded=1;whiteSpace=wrap;html=1;" parent="1" vertex="1">
          <mxGeometry x="846" y="158.63" width="176" height="80" as="geometry" />
        </mxCell>
        <mxCell id="ZnAn2GDKwHJX_mXja53h-10" style="edgeStyle=orthogonalEdgeStyle;rounded=0;orthogonalLoop=1;jettySize=auto;html=1;entryX=0;entryY=0.5;entryDx=0;entryDy=0;" parent="1" source="ZnAn2GDKwHJX_mXja53h-5" target="ZnAn2GDKwHJX_mXja53h-4" edge="1">
          <mxGeometry relative="1" as="geometry" />
        </mxCell>
        <mxCell id="ZnAn2GDKwHJX_mXja53h-11" value="OUI&amp;nbsp;" style="edgeLabel;html=1;align=center;verticalAlign=middle;resizable=0;points=[];" parent="ZnAn2GDKwHJX_mXja53h-10" vertex="1" connectable="0">
          <mxGeometry x="-0.1723" y="2" relative="1" as="geometry">
            <mxPoint as="offset" />
          </mxGeometry>
        </mxCell>
        <mxCell id="ZnAn2GDKwHJX_mXja53h-5" value="&lt;span style=&quot;font-family: Arial; text-align: start; text-wrap-mode: nowrap;&quot;&gt;&lt;font style=&quot;font-size: 10px;&quot;&gt;Nouvel&lt;/font&gt;&lt;/span&gt;&lt;div&gt;&lt;span style=&quot;font-family: Arial; text-align: start; text-wrap-mode: nowrap; background-color: transparent; color: light-dark(rgb(0, 0, 0), rgb(255, 255, 255));&quot;&gt;&lt;font style=&quot;font-size: 10px;&quot;&gt;&amp;nbsp;utilisateur?&lt;/font&gt;&lt;/span&gt;&lt;/div&gt;" style="rhombus;whiteSpace=wrap;html=1;fillColor=#fff2cc;strokeColor=#d6b656;" parent="1" vertex="1">
          <mxGeometry x="397" y="158.63" width="76" height="80" as="geometry" />
        </mxCell>
        <mxCell id="ZnAn2GDKwHJX_mXja53h-12" style="edgeStyle=orthogonalEdgeStyle;rounded=0;orthogonalLoop=1;jettySize=auto;html=1;exitX=0.5;exitY=1;exitDx=0;exitDy=0;entryX=0.5;entryY=0;entryDx=0;entryDy=0;" parent="1" source="ZnAn2GDKwHJX_mXja53h-6" target="ZnAn2GDKwHJX_mXja53h-5" edge="1">
          <mxGeometry relative="1" as="geometry" />
        </mxCell>
        <mxCell id="ZnAn2GDKwHJX_mXja53h-6" value="&lt;span style=&quot;font-family: Arial; font-size: 16px; text-align: start; text-wrap-mode: nowrap;&quot;&gt;Inscription/Connexion&lt;/span&gt;" style="rounded=1;whiteSpace=wrap;html=1;" parent="1" vertex="1">
          <mxGeometry x="347" y="60" width="176" height="80" as="geometry" />
        </mxCell>
        <mxCell id="ZnAn2GDKwHJX_mXja53h-8" style="edgeStyle=orthogonalEdgeStyle;rounded=0;orthogonalLoop=1;jettySize=auto;html=1;entryX=0.985;entryY=0.517;entryDx=0;entryDy=0;entryPerimeter=0;" parent="1" source="ZnAn2GDKwHJX_mXja53h-5" target="ZnAn2GDKwHJX_mXja53h-3" edge="1">
          <mxGeometry relative="1" as="geometry" />
        </mxCell>
        <mxCell id="ZnAn2GDKwHJX_mXja53h-9" value="NON" style="edgeLabel;html=1;align=center;verticalAlign=middle;resizable=0;points=[];" parent="ZnAn2GDKwHJX_mXja53h-8" vertex="1" connectable="0">
          <mxGeometry x="-0.0077" relative="1" as="geometry">
            <mxPoint x="5" y="-1" as="offset" />
          </mxGeometry>
        </mxCell>
        <mxCell id="ZnAn2GDKwHJX_mXja53h-22" style="edgeStyle=orthogonalEdgeStyle;rounded=0;orthogonalLoop=1;jettySize=auto;html=1;" parent="1" source="ZnAn2GDKwHJX_mXja53h-14" target="ZnAn2GDKwHJX_mXja53h-17" edge="1">
          <mxGeometry relative="1" as="geometry" />
        </mxCell>
        <mxCell id="ZnAn2GDKwHJX_mXja53h-14" value="&lt;div style=&quot;background-color: rgb(255, 255, 254); line-height: 19px;&quot;&gt;&lt;font face=&quot;Consolas, Courier New, monospace&quot;&gt;&lt;span style=&quot;font-size: 14px; white-space: pre;&quot;&gt;Choisir Abonnement&lt;/span&gt;&lt;/font&gt;&lt;/div&gt;" style="rounded=1;whiteSpace=wrap;html=1;" parent="1" vertex="1">
          <mxGeometry x="846" y="270" width="176" height="80" as="geometry" />
        </mxCell>
        <mxCell id="ZnAn2GDKwHJX_mXja53h-39" style="edgeStyle=orthogonalEdgeStyle;rounded=0;orthogonalLoop=1;jettySize=auto;html=1;" parent="1" source="ZnAn2GDKwHJX_mXja53h-15" edge="1">
          <mxGeometry relative="1" as="geometry">
            <mxPoint x="435" y="790" as="targetPoint" />
          </mxGeometry>
        </mxCell>
        <mxCell id="ZnAn2GDKwHJX_mXja53h-15" value="&lt;div style=&quot;background-color: rgb(255, 255, 254); line-height: 19px;&quot;&gt;&lt;font face=&quot;Consolas, Courier New, monospace&quot;&gt;&lt;span style=&quot;font-size: 14px; white-space: pre;&quot;&gt;Page d&#39;acceuil&lt;/span&gt;&lt;/font&gt;&lt;/div&gt;" style="rounded=1;whiteSpace=wrap;html=1;" parent="1" vertex="1">
          <mxGeometry x="347" y="645" width="176" height="80" as="geometry" />
        </mxCell>
        <mxCell id="ZnAn2GDKwHJX_mXja53h-17" value="&lt;div style=&quot;background-color: rgb(255, 255, 254); line-height: 19px;&quot;&gt;&lt;font face=&quot;Consolas, Courier New, monospace&quot;&gt;&lt;span style=&quot;font-size: 14px; white-space: pre;&quot;&gt;Payer&lt;/span&gt;&lt;/font&gt;&lt;/div&gt;" style="rounded=1;whiteSpace=wrap;html=1;" parent="1" vertex="1">
          <mxGeometry x="846" y="370" width="176" height="80" as="geometry" />
        </mxCell>
        <mxCell id="ZnAn2GDKwHJX_mXja53h-30" style="edgeStyle=orthogonalEdgeStyle;rounded=0;orthogonalLoop=1;jettySize=auto;html=1;exitX=0.5;exitY=1;exitDx=0;exitDy=0;entryX=0.5;entryY=0;entryDx=0;entryDy=0;" parent="1" source="ZnAn2GDKwHJX_mXja53h-20" target="ZnAn2GDKwHJX_mXja53h-27" edge="1">
          <mxGeometry relative="1" as="geometry" />
        </mxCell>
        <mxCell id="ZnAn2GDKwHJX_mXja53h-20" value="" style="swimlane;startSize=0;" parent="1" vertex="1">
          <mxGeometry x="826" y="450" width="220" height="130" as="geometry" />
        </mxCell>
        <mxCell id="ZnAn2GDKwHJX_mXja53h-19" value="&lt;br style=&quot;forced-color-adjust: none;&quot;&gt;&lt;span data-mx-given-colors=&quot;{&amp;quot;color&amp;quot;:&amp;quot;rgb(0, 0, 0)&amp;quot;}&quot; style=&quot;forced-color-adjust: none; color: light-dark(rgb(0, 0, 0), rgb(237, 237, 237)); font-family: Arial; font-size: 14px; font-style: normal; font-variant-ligatures: normal; font-variant-caps: normal; font-weight: 400; letter-spacing: normal; orphans: 2; text-align: start; text-indent: 0px; text-transform: none; widows: 2; word-spacing: 0px; -webkit-text-stroke-width: 0px; white-space: nowrap; text-decoration-thickness: initial; text-decoration-style: initial; text-decoration-color: initial; float: none; display: inline !important;&quot;&gt;Sous-processus: Paiement&amp;nbsp;&lt;/span&gt;&lt;div style=&quot;forced-color-adjust: none;&quot;&gt;&lt;br style=&quot;forced-color-adjust: none; color: rgb(0, 0, 0); font-family: Helvetica; font-size: 12px; font-style: normal; font-variant-ligatures: normal; font-variant-caps: normal; font-weight: 400; letter-spacing: normal; orphans: 2; text-align: center; text-indent: 0px; text-transform: none; widows: 2; word-spacing: 0px; -webkit-text-stroke-width: 0px; white-space: normal; background-color: rgb(251, 251, 251); text-decoration-thickness: initial; text-decoration-style: initial; text-decoration-color: initial;&quot;&gt;&#xa;&#xa;&lt;/div&gt;" style="text;whiteSpace=wrap;html=1;" parent="ZnAn2GDKwHJX_mXja53h-20" vertex="1">
          <mxGeometry x="23.5" y="-10" width="173" height="50" as="geometry" />
        </mxCell>
        <mxCell id="ZnAn2GDKwHJX_mXja53h-23" value="&lt;div style=&quot;background-color: rgb(255, 255, 254); line-height: 19px;&quot;&gt;&lt;div style=&quot;font-family: Consolas, &amp;quot;Courier New&amp;quot;, monospace; font-size: 14px; line-height: 19px; white-space: pre;&quot;&gt;&lt;font style=&quot;color: rgb(0, 0, 0);&quot;&gt;Saisir Infos Bancaires&lt;/font&gt;&lt;/div&gt;&lt;/div&gt;" style="rounded=1;whiteSpace=wrap;html=1;" parent="ZnAn2GDKwHJX_mXja53h-20" vertex="1">
          <mxGeometry x="22" y="40" width="176" height="30" as="geometry" />
        </mxCell>
        <mxCell id="ZnAn2GDKwHJX_mXja53h-24" value="&lt;div style=&quot;background-color: rgb(255, 255, 254); line-height: 19px;&quot;&gt;&lt;div style=&quot;font-family: Consolas, &amp;quot;Courier New&amp;quot;, monospace; font-size: 14px; line-height: 19px; white-space: pre;&quot;&gt;&lt;span&gt;&lt;font style=&quot;color: rgb(0, 0, 0);&quot;&gt;Confirmer Paiement&lt;/font&gt;&lt;/span&gt;&lt;/div&gt;&lt;/div&gt;" style="rounded=1;whiteSpace=wrap;html=1;" parent="ZnAn2GDKwHJX_mXja53h-20" vertex="1">
          <mxGeometry x="22" y="80" width="176" height="30" as="geometry" />
        </mxCell>
        <mxCell id="ZnAn2GDKwHJX_mXja53h-32" style="edgeStyle=orthogonalEdgeStyle;rounded=0;orthogonalLoop=1;jettySize=auto;html=1;exitX=1;exitY=0.5;exitDx=0;exitDy=0;entryX=0;entryY=0.5;entryDx=0;entryDy=0;" parent="1" source="ZnAn2GDKwHJX_mXja53h-27" target="ZnAn2GDKwHJX_mXja53h-31" edge="1">
          <mxGeometry relative="1" as="geometry" />
        </mxCell>
        <mxCell id="ZnAn2GDKwHJX_mXja53h-33" value="Non" style="edgeLabel;html=1;align=center;verticalAlign=middle;resizable=0;points=[];" parent="ZnAn2GDKwHJX_mXja53h-32" vertex="1" connectable="0">
          <mxGeometry x="0.0056" relative="1" as="geometry">
            <mxPoint as="offset" />
          </mxGeometry>
        </mxCell>
        <mxCell id="ZnAn2GDKwHJX_mXja53h-35" style="edgeStyle=orthogonalEdgeStyle;rounded=0;orthogonalLoop=1;jettySize=auto;html=1;" parent="1" source="ZnAn2GDKwHJX_mXja53h-27" target="ZnAn2GDKwHJX_mXja53h-34" edge="1">
          <mxGeometry relative="1" as="geometry" />
        </mxCell>
        <mxCell id="ZnAn2GDKwHJX_mXja53h-36" value="Oui" style="edgeLabel;html=1;align=center;verticalAlign=middle;resizable=0;points=[];" parent="ZnAn2GDKwHJX_mXja53h-35" vertex="1" connectable="0">
          <mxGeometry x="-0.1058" y="2" relative="1" as="geometry">
            <mxPoint as="offset" />
          </mxGeometry>
        </mxCell>
        <mxCell id="ZnAn2GDKwHJX_mXja53h-27" value="&lt;div style=&quot;font-family: Consolas, &amp;quot;Courier New&amp;quot;, monospace; font-size: 14px; line-height: 19px; white-space: pre;&quot;&gt;&lt;font style=&quot;background-color: light-dark(#ffffff, var(--ge-dark-color, #121212));&quot;&gt;Validation &lt;/font&gt;&lt;/div&gt;&lt;div style=&quot;font-family: Consolas, &amp;quot;Courier New&amp;quot;, monospace; font-size: 14px; line-height: 19px; white-space: pre;&quot;&gt;&lt;font style=&quot;background-color: light-dark(#ffffff, var(--ge-dark-color, #121212));&quot;&gt;Donnees&lt;/font&gt;&lt;/div&gt;" style="rhombus;whiteSpace=wrap;html=1;fillColor=#fff2cc;strokeColor=#d6b656;" parent="1" vertex="1">
          <mxGeometry x="872" y="620" width="128" height="130" as="geometry" />
        </mxCell>
        <mxCell id="ZnAn2GDKwHJX_mXja53h-31" value="&lt;div style=&quot;background-color: rgb(255, 255, 254); line-height: 19px;&quot;&gt;&lt;div style=&quot;font-family: Consolas, &amp;quot;Courier New&amp;quot;, monospace; font-size: 14px; line-height: 19px; white-space: pre;&quot;&gt;&lt;font style=&quot;color: rgb(0, 0, 0);&quot;&gt;Erreur Paiement&lt;/font&gt;&lt;/div&gt;&lt;/div&gt;" style="rounded=1;whiteSpace=wrap;html=1;" parent="1" vertex="1">
          <mxGeometry x="1053" y="645" width="176" height="80" as="geometry" />
        </mxCell>
        <mxCell id="ZnAn2GDKwHJX_mXja53h-38" style="edgeStyle=orthogonalEdgeStyle;rounded=0;orthogonalLoop=1;jettySize=auto;html=1;entryX=1;entryY=0.5;entryDx=0;entryDy=0;" parent="1" source="ZnAn2GDKwHJX_mXja53h-34" target="ZnAn2GDKwHJX_mXja53h-15" edge="1">
          <mxGeometry relative="1" as="geometry" />
        </mxCell>
        <mxCell id="ZnAn2GDKwHJX_mXja53h-34" value="&lt;span style=&quot;font-family: Arial; font-size: 16px; text-align: start; text-wrap-mode: nowrap;&quot;&gt;Connexion&lt;/span&gt;" style="rounded=1;whiteSpace=wrap;html=1;" parent="1" vertex="1">
          <mxGeometry x="650" y="645" width="176" height="80" as="geometry" />
        </mxCell>
        <mxCell id="7SACADJKN0QuLbfnWCjb-2" style="edgeStyle=orthogonalEdgeStyle;rounded=0;orthogonalLoop=1;jettySize=auto;html=1;entryX=0.5;entryY=0;entryDx=0;entryDy=0;" edge="1" parent="1" source="ZnAn2GDKwHJX_mXja53h-40" target="7SACADJKN0QuLbfnWCjb-1">
          <mxGeometry relative="1" as="geometry" />
        </mxCell>
        <mxCell id="ZnAn2GDKwHJX_mXja53h-40" value="&lt;div style=&quot;background-color: rgb(255, 255, 254); line-height: 19px;&quot;&gt;&lt;div style=&quot;font-family: Consolas, &amp;quot;Courier New&amp;quot;, monospace; font-size: 14px; line-height: 19px; white-space: pre;&quot;&gt;&lt;div style=&quot;line-height: 19px;&quot;&gt;&lt;font style=&quot;color: rgb(0, 0, 0);&quot;&gt;Acceder Dashboard&lt;/font&gt;&lt;/div&gt;&lt;/div&gt;&lt;/div&gt;" style="rounded=1;whiteSpace=wrap;html=1;" parent="1" vertex="1">
          <mxGeometry x="347" y="790" width="176" height="80" as="geometry" />
        </mxCell>
        <mxCell id="7SACADJKN0QuLbfnWCjb-6" style="edgeStyle=orthogonalEdgeStyle;rounded=0;orthogonalLoop=1;jettySize=auto;html=1;entryX=0.5;entryY=0;entryDx=0;entryDy=0;" edge="1" parent="1" source="7SACADJKN0QuLbfnWCjb-1" target="7SACADJKN0QuLbfnWCjb-4">
          <mxGeometry relative="1" as="geometry" />
        </mxCell>
        <mxCell id="7SACADJKN0QuLbfnWCjb-10" style="edgeStyle=orthogonalEdgeStyle;rounded=0;orthogonalLoop=1;jettySize=auto;html=1;" edge="1" parent="1" source="7SACADJKN0QuLbfnWCjb-1" target="7SACADJKN0QuLbfnWCjb-9">
          <mxGeometry relative="1" as="geometry" />
        </mxCell>
        <mxCell id="7SACADJKN0QuLbfnWCjb-1" value="&lt;div style=&quot;background-color: rgb(255, 255, 254); line-height: 19px;&quot;&gt;&lt;div style=&quot;font-family: Consolas, &amp;quot;Courier New&amp;quot;, monospace; font-size: 14px; line-height: 19px; white-space: pre;&quot;&gt;&lt;div style=&quot;line-height: 19px;&quot;&gt;&lt;font style=&quot;color: rgb(0, 0, 0);&quot;&gt;Choix d&#39;action: GÃ©rer Vente, GÃ©rer Stock,&lt;br&gt;Voir Statistique, GÃ©rer Abonnement, DÃ©connexion&lt;/font&gt;&lt;/div&gt;&lt;/div&gt;&lt;/div&gt;" style="rounded=1;whiteSpace=wrap;html=1;" vertex="1" parent="1">
          <mxGeometry x="148.5" y="910" width="573" height="80" as="geometry" />
        </mxCell>
        <mxCell id="7SACADJKN0QuLbfnWCjb-3" value="&lt;div style=&quot;background-color: rgb(255, 255, 254); line-height: 19px;&quot;&gt;&lt;div style=&quot;font-family: Consolas, &amp;quot;Courier New&amp;quot;, monospace; font-size: 14px; line-height: 19px; white-space: pre;&quot;&gt;&lt;div style=&quot;line-height: 19px;&quot;&gt;&lt;font style=&quot;color: rgb(0, 0, 0);&quot;&gt;GÃ©rer Vente&lt;/font&gt;&lt;/div&gt;&lt;/div&gt;&lt;/div&gt;" style="rounded=1;whiteSpace=wrap;html=1;" vertex="1" parent="1">
          <mxGeometry x="148.5" y="1030" width="176" height="80" as="geometry" />
        </mxCell>
        <mxCell id="7SACADJKN0QuLbfnWCjb-4" value="&lt;div style=&quot;background-color: rgb(255, 255, 254); line-height: 19px;&quot;&gt;&lt;div style=&quot;font-family: Consolas, &amp;quot;Courier New&amp;quot;, monospace; font-size: 14px; line-height: 19px; white-space: pre;&quot;&gt;&lt;div style=&quot;line-height: 19px;&quot;&gt;GÃ©rer Stock&lt;/div&gt;&lt;/div&gt;&lt;/div&gt;" style="rounded=1;whiteSpace=wrap;html=1;" vertex="1" parent="1">
          <mxGeometry x="347" y="1030" width="176" height="80" as="geometry" />
        </mxCell>
        <mxCell id="7SACADJKN0QuLbfnWCjb-5" value="&lt;div style=&quot;background-color: rgb(255, 255, 254); line-height: 19px;&quot;&gt;&lt;div style=&quot;font-family: Consolas, &amp;quot;Courier New&amp;quot;, monospace; font-size: 14px; line-height: 19px; white-space: pre;&quot;&gt;&lt;div style=&quot;line-height: 19px;&quot;&gt;GÃ©rer Abonnement&lt;/div&gt;&lt;/div&gt;&lt;/div&gt;" style="rounded=1;whiteSpace=wrap;html=1;" vertex="1" parent="1">
          <mxGeometry x="545.5" y="1030" width="176" height="80" as="geometry" />
        </mxCell>
        <mxCell id="7SACADJKN0QuLbfnWCjb-7" style="edgeStyle=orthogonalEdgeStyle;rounded=0;orthogonalLoop=1;jettySize=auto;html=1;entryX=0.5;entryY=0;entryDx=0;entryDy=0;" edge="1" parent="1">
          <mxGeometry relative="1" as="geometry">
            <mxPoint x="633.24" y="990" as="sourcePoint" />
            <mxPoint x="633.24" y="1030" as="targetPoint" />
          </mxGeometry>
        </mxCell>
        <mxCell id="7SACADJKN0QuLbfnWCjb-8" style="edgeStyle=orthogonalEdgeStyle;rounded=0;orthogonalLoop=1;jettySize=auto;html=1;entryX=0.5;entryY=0;entryDx=0;entryDy=0;" edge="1" parent="1">
          <mxGeometry relative="1" as="geometry">
            <mxPoint x="236.24" y="990" as="sourcePoint" />
            <mxPoint x="236.24" y="1030" as="targetPoint" />
          </mxGeometry>
        </mxCell>
        <mxCell id="7SACADJKN0QuLbfnWCjb-9" value="&lt;div style=&quot;background-color: rgb(255, 255, 254); line-height: 19px;&quot;&gt;&lt;div style=&quot;font-family: Consolas, &amp;quot;Courier New&amp;quot;, monospace; font-size: 14px; line-height: 19px; white-space: pre;&quot;&gt;&lt;div style=&quot;line-height: 19px;&quot;&gt;DÃ©connexion&lt;/div&gt;&lt;/div&gt;&lt;/div&gt;" style="rounded=1;whiteSpace=wrap;html=1;" vertex="1" parent="1">
          <mxGeometry x="824" y="910" width="176" height="80" as="geometry" />
        </mxCell>
        <mxCell id="7SACADJKN0QuLbfnWCjb-14" value="" style="swimlane;startSize=0;" vertex="1" parent="1">
          <mxGeometry x="140" y="1110" width="190" height="160" as="geometry" />
        </mxCell>
        <mxCell id="7SACADJKN0QuLbfnWCjb-15" value="&lt;br style=&quot;forced-color-adjust: none;&quot;&gt;&lt;span style=&quot;forced-color-adjust: none; color: rgb(0, 0, 0); font-family: Arial; font-size: 14px; font-style: normal; font-variant-ligatures: normal; font-variant-caps: normal; font-weight: 400; letter-spacing: normal; orphans: 2; text-align: start; text-indent: 0px; text-transform: none; widows: 2; word-spacing: 0px; -webkit-text-stroke-width: 0px; white-space: nowrap; text-decoration-thickness: initial; text-decoration-style: initial; text-decoration-color: initial; float: none; display: inline !important;&quot;&gt;Sous-processus:&amp;nbsp;&lt;/span&gt;&lt;span style=&quot;font-family: Consolas, &amp;quot;Courier New&amp;quot;, monospace; font-size: 14px; text-align: center; white-space: pre; background-color: rgb(255, 255, 254);&quot;&gt;Vente&lt;/span&gt;&lt;div style=&quot;forced-color-adjust: none;&quot;&gt;&lt;br style=&quot;forced-color-adjust: none; color: rgb(0, 0, 0); font-family: Helvetica; font-size: 12px; font-style: normal; font-variant-ligatures: normal; font-variant-caps: normal; font-weight: 400; letter-spacing: normal; orphans: 2; text-align: center; text-indent: 0px; text-transform: none; widows: 2; word-spacing: 0px; -webkit-text-stroke-width: 0px; white-space: normal; background-color: rgb(251, 251, 251); text-decoration-thickness: initial; text-decoration-style: initial; text-decoration-color: initial;&quot;&gt;&lt;br&gt;&lt;br&gt;&lt;/div&gt;" style="text;whiteSpace=wrap;html=1;" vertex="1" parent="7SACADJKN0QuLbfnWCjb-14">
          <mxGeometry x="8.5" y="-10" width="173" height="50" as="geometry" />
        </mxCell>
        <mxCell id="7SACADJKN0QuLbfnWCjb-16" value="&lt;div style=&quot;background-color: rgb(255, 255, 254); line-height: 19px;&quot;&gt;&lt;div style=&quot;font-family: Consolas, &amp;quot;Courier New&amp;quot;, monospace; font-size: 14px; line-height: 19px; white-space: pre;&quot;&gt;&lt;font style=&quot;color: rgb(0, 0, 0);&quot;&gt;Ajouter une vente&lt;/font&gt;&lt;/div&gt;&lt;/div&gt;" style="rounded=1;whiteSpace=wrap;html=1;" vertex="1" parent="7SACADJKN0QuLbfnWCjb-14">
          <mxGeometry x="7" y="40" width="176" height="30" as="geometry" />
        </mxCell>
        <mxCell id="7SACADJKN0QuLbfnWCjb-17" value="&lt;div style=&quot;background-color: rgb(255, 255, 254); line-height: 19px;&quot;&gt;&lt;div style=&quot;font-family: Consolas, &amp;quot;Courier New&amp;quot;, monospace; font-size: 14px; line-height: 19px; white-space: pre;&quot;&gt;Modifier une vente&lt;/div&gt;&lt;/div&gt;" style="rounded=1;whiteSpace=wrap;html=1;" vertex="1" parent="7SACADJKN0QuLbfnWCjb-14">
          <mxGeometry x="7" y="80" width="176" height="30" as="geometry" />
        </mxCell>
        <mxCell id="7SACADJKN0QuLbfnWCjb-26" value="&lt;div style=&quot;background-color: rgb(255, 255, 254); line-height: 19px;&quot;&gt;&lt;div style=&quot;font-family: Consolas, &amp;quot;Courier New&amp;quot;, monospace; font-size: 14px; line-height: 19px; white-space: pre;&quot;&gt;Supprimer une vente&lt;/div&gt;&lt;/div&gt;" style="rounded=1;whiteSpace=wrap;html=1;" vertex="1" parent="7SACADJKN0QuLbfnWCjb-14">
          <mxGeometry x="7" y="120" width="176" height="30" as="geometry" />
        </mxCell>
        <mxCell id="7SACADJKN0QuLbfnWCjb-18" value="" style="swimlane;startSize=0;" vertex="1" parent="1">
          <mxGeometry x="340" y="1110" width="190" height="160" as="geometry" />
        </mxCell>
        <mxCell id="7SACADJKN0QuLbfnWCjb-19" value="&lt;br style=&quot;forced-color-adjust: none;&quot;&gt;&lt;span style=&quot;forced-color-adjust: none; color: rgb(0, 0, 0); font-family: Arial; font-size: 14px; font-style: normal; font-variant-ligatures: normal; font-variant-caps: normal; font-weight: 400; letter-spacing: normal; orphans: 2; text-align: start; text-indent: 0px; text-transform: none; widows: 2; word-spacing: 0px; -webkit-text-stroke-width: 0px; white-space: nowrap; text-decoration-thickness: initial; text-decoration-style: initial; text-decoration-color: initial; float: none; display: inline !important;&quot;&gt;Sous-processus: Stock&lt;/span&gt;" style="text;whiteSpace=wrap;html=1;" vertex="1" parent="7SACADJKN0QuLbfnWCjb-18">
          <mxGeometry x="8.5" y="-10" width="173" height="50" as="geometry" />
        </mxCell>
        <mxCell id="7SACADJKN0QuLbfnWCjb-27" value="&lt;div style=&quot;background-color: rgb(255, 255, 254); line-height: 19px;&quot;&gt;&lt;div style=&quot;font-family: Consolas, &amp;quot;Courier New&amp;quot;, monospace; font-size: 14px; line-height: 19px; white-space: pre;&quot;&gt;&lt;font style=&quot;color: rgb(0, 0, 0);&quot;&gt;Ajouter un Stock&lt;/font&gt;&lt;/div&gt;&lt;/div&gt;" style="rounded=1;whiteSpace=wrap;html=1;" vertex="1" parent="7SACADJKN0QuLbfnWCjb-18">
          <mxGeometry x="7" y="40" width="176" height="30" as="geometry" />
        </mxCell>
        <mxCell id="7SACADJKN0QuLbfnWCjb-28" value="&lt;div style=&quot;background-color: rgb(255, 255, 254); line-height: 19px;&quot;&gt;&lt;div style=&quot;font-family: Consolas, &amp;quot;Courier New&amp;quot;, monospace; font-size: 14px; line-height: 19px; white-space: pre;&quot;&gt;Modifier un Stock&lt;/div&gt;&lt;/div&gt;" style="rounded=1;whiteSpace=wrap;html=1;" vertex="1" parent="7SACADJKN0QuLbfnWCjb-18">
          <mxGeometry x="7" y="80" width="176" height="30" as="geometry" />
        </mxCell>
        <mxCell id="7SACADJKN0QuLbfnWCjb-29" value="&lt;div style=&quot;background-color: rgb(255, 255, 254); line-height: 19px;&quot;&gt;&lt;div style=&quot;font-family: Consolas, &amp;quot;Courier New&amp;quot;, monospace; font-size: 14px; line-height: 19px; white-space: pre;&quot;&gt;Supprimer un Stock&lt;/div&gt;&lt;/div&gt;" style="rounded=1;whiteSpace=wrap;html=1;" vertex="1" parent="7SACADJKN0QuLbfnWCjb-18">
          <mxGeometry x="7" y="120" width="176" height="30" as="geometry" />
        </mxCell>
        <mxCell id="7SACADJKN0QuLbfnWCjb-22" value="" style="swimlane;startSize=0;" vertex="1" parent="1">
          <mxGeometry x="540" y="1110" width="190" height="120" as="geometry" />
        </mxCell>
        <mxCell id="7SACADJKN0QuLbfnWCjb-23" value="&lt;br style=&quot;forced-color-adjust: none;&quot;&gt;&lt;span data-mx-given-colors=&quot;{&amp;quot;color&amp;quot;:&amp;quot;rgb(0, 0, 0)&amp;quot;}&quot; style=&quot;forced-color-adjust: none; color: light-dark(rgb(0, 0, 0), rgb(237, 237, 237)); font-family: Arial; font-size: 14px; font-style: normal; font-variant-ligatures: normal; font-variant-caps: normal; font-weight: 400; letter-spacing: normal; orphans: 2; text-align: start; text-indent: 0px; text-transform: none; widows: 2; word-spacing: 0px; -webkit-text-stroke-width: 0px; white-space: nowrap; text-decoration-thickness: initial; text-decoration-style: initial; text-decoration-color: initial; float: none; display: inline !important;&quot;&gt;Sous-processus: Paiement&amp;nbsp;&lt;/span&gt;&lt;div style=&quot;forced-color-adjust: none;&quot;&gt;&lt;br style=&quot;forced-color-adjust: none; color: rgb(0, 0, 0); font-family: Helvetica; font-size: 12px; font-style: normal; font-variant-ligatures: normal; font-variant-caps: normal; font-weight: 400; letter-spacing: normal; orphans: 2; text-align: center; text-indent: 0px; text-transform: none; widows: 2; word-spacing: 0px; -webkit-text-stroke-width: 0px; white-space: normal; background-color: rgb(251, 251, 251); text-decoration-thickness: initial; text-decoration-style: initial; text-decoration-color: initial;&quot;&gt;&#xa;&#xa;&lt;/div&gt;" style="text;whiteSpace=wrap;html=1;" vertex="1" parent="7SACADJKN0QuLbfnWCjb-22">
          <mxGeometry x="8.5" y="-10" width="173" height="50" as="geometry" />
        </mxCell>
        <mxCell id="7SACADJKN0QuLbfnWCjb-24" value="&lt;div style=&quot;background-color: rgb(255, 255, 254); line-height: 19px;&quot;&gt;&lt;div style=&quot;font-family: Consolas, &amp;quot;Courier New&amp;quot;, monospace; font-size: 14px; line-height: 19px; white-space: pre;&quot;&gt;RÃ©silier&lt;/div&gt;&lt;/div&gt;" style="rounded=1;whiteSpace=wrap;html=1;" vertex="1" parent="7SACADJKN0QuLbfnWCjb-22">
          <mxGeometry x="7" y="40" width="176" height="30" as="geometry" />
        </mxCell>
        <mxCell id="7SACADJKN0QuLbfnWCjb-30" value="&lt;div style=&quot;background-color: rgb(255, 255, 254); line-height: 19px;&quot;&gt;&lt;div style=&quot;font-family: Consolas, &amp;quot;Courier New&amp;quot;, monospace; font-size: 14px; line-height: 19px; white-space: pre;&quot;&gt;Renouveler&lt;/div&gt;&lt;/div&gt;" style="rounded=1;whiteSpace=wrap;html=1;" vertex="1" parent="7SACADJKN0QuLbfnWCjb-22">
          <mxGeometry x="7" y="80" width="176" height="30" as="geometry" />
        </mxCell>
      </root>
    </mxGraphModel>
  </diagram>
</mxfile>
